<svg width="24" height="25" fill="none" xmlns="http://www.w3.org/2000/svg"><g clip-path="url(#a)" fill-rule="evenodd" clip-rule="evenodd" fill="#363636"><path d="M3 5.254a1.5 1.5 0 0 1 1.5-1.5h15a1.5 1.5 0 0 1 1.5 1.5v15a1.5 1.5 0 0 1-1.5 1.5h-15a1.5 1.5 0 0 1-1.5-1.5v-15zm16.5 0h-15v15h15v-15z"/><path d="M16.5 2.254a.75.75 0 0 1 .75.75v3a.75.75 0 0 1-1.5 0v-3a.75.75 0 0 1 .75-.75zM7.5 2.254a.75.75 0 0 1 .75.75v3a.75.75 0 0 1-1.5 0v-3a.75.75 0 0 1 .75-.75zM3 9.004a.75.75 0 0 1 .75-.75h16.5a.75.75 0 0 1 0 1.5H3.75a.75.75 0 0 1-.75-.75zM7.875 12.754a.75.75 0 0 1 .75-.75h2.625a.75.75 0 0 1 .586 1.218l-.831 1.04a2.249 2.249 0 0 1-.815 4.073 2.25 2.25 0 0 1-2.03-.614.75.75 0 0 1 1.06-1.061.75.75 0 1 0 .53-1.281.75.75 0 0 1-.586-1.219l.526-.656H8.625a.75.75 0 0 1-.75-.75zM15.335 12.083a.75.75 0 0 1 .415.67v4.876a.75.75 0 0 1-1.5 0v-3.375l-.3.225a.75.75 0 0 1-.9-1.2l1.5-1.125a.75.75 0 0 1 .785-.071z"/></g><defs><clipPath id="a"><path fill="#fff" transform="translate(0 .754)" d="M0 0h24v24H0z"/></clipPath></defs></svg>