<svg width="24" height="25" fill="none" xmlns="http://www.w3.org/2000/svg"><path fill-rule="evenodd" clip-rule="evenodd" d="M7 12.5c0-2.926 2-5 5-5 3.002 0 5 1.982 5 5.075 0 3-1.998 4.925-4.998 4.925S7 15.575 7 12.5zm2.002.075c0 1.654 1.35 3 3 3s3-1.346 3-3c0-1.655-1.346-3-3-3s-3 1.345-3 3zm8.803-3.728a1.076 1.076 0 1 0 0-2.153 1.076 1.076 0 0 0 0 2.153zm1.678-3.755c1.056 1.052 1.386 2.33 1.454 3.771.084 1.486.084 5.937 0 7.423-.073 1.442-.402 2.719-1.454 3.771-1.052 1.057-2.329 1.386-3.77 1.454-1.486.085-5.94.085-7.425 0-1.442-.072-2.715-.401-3.771-1.454-1.056-1.052-1.385-2.33-1.454-3.771-.084-1.486-.084-5.94 0-7.427.073-1.442.398-2.719 1.454-3.771 1.056-1.053 2.333-1.382 3.77-1.45 1.486-.085 5.94-.085 7.425 0 1.442.072 2.719.401 3.771 1.454z" fill="#363636"/></svg>