<svg width="16" height="16" viewBox="0 0 16 16" fill="none" xmlns="http://www.w3.org/2000/svg">
<path fill-rule="evenodd" clip-rule="evenodd" d="M7.3335 2.66683C4.75617 2.66683 2.66683 4.75617 2.66683 7.3335C2.66683 9.91083 4.75617 12.0002 7.3335 12.0002C9.91083 12.0002 12.0002 9.91083 12.0002 7.3335C12.0002 4.75617 9.91083 2.66683 7.3335 2.66683ZM1.3335 7.3335C1.3335 4.01979 4.01979 1.3335 7.3335 1.3335C10.6472 1.3335 13.3335 4.01979 13.3335 7.3335C13.3335 10.6472 10.6472 13.3335 7.3335 13.3335C4.01979 13.3335 1.3335 10.6472 1.3335 7.3335Z" fill="#A7A7A7"/>
<path fill-rule="evenodd" clip-rule="evenodd" d="M10.6284 10.6284C10.8887 10.368 11.3108 10.368 11.5712 10.6284L14.4712 13.5284C14.7315 13.7887 14.7315 14.2108 14.4712 14.4712C14.2108 14.7315 13.7887 14.7315 13.5284 14.4712L10.6284 11.5712C10.368 11.3108 10.368 10.8887 10.6284 10.6284Z" fill="#A7A7A7"/>
</svg>
