<svg width="19" height="16" viewBox="0 0 19 16" fill="none" xmlns="http://www.w3.org/2000/svg">
<path fill-rule="evenodd" clip-rule="evenodd" d="M13.7197 0.72382C13.7916 0.651915 13.8744 0.597662 13.9629 0.561062L14.7803 0.723781L14.7808 0.724314L18.5302 4.47312C18.8231 4.766 18.8231 5.24087 18.5303 5.53378C18.2374 5.8267 17.7625 5.82674 17.4696 5.53386L15 3.06462V10.2542C15 10.6684 14.6642 11.0042 14.25 11.0042C13.8358 11.0042 13.5 10.6684 13.5 10.2542V3.06481L11.0303 5.53448C10.7374 5.82737 10.2626 5.82737 9.96967 5.53448C9.67678 5.24159 9.67678 4.76671 9.96967 4.47382L13.7197 0.72382ZM13.9629 0.561062L14.7754 0.718927C14.6401 0.586082 14.4546 0.50415 14.25 0.50415C14.1483 0.50415 14.0513 0.52439 13.9629 0.561062ZM1.5 8.00415C1.08579 8.00415 0.75 8.33994 0.75 8.75415C0.75 9.16836 1.08579 9.50415 1.5 9.50415H8.24991C8.66412 9.50415 8.99991 9.16836 8.99991 8.75415C8.99991 8.33994 8.66412 8.00415 8.24991 8.00415H1.5ZM0.75 2.75415C0.75 2.33994 1.08579 2.00415 1.5 2.00415H6.74991C7.16412 2.00415 7.49991 2.33994 7.49991 2.75415C7.49991 3.16836 7.16412 3.50415 6.74991 3.50415H1.5C1.08579 3.50415 0.75 3.16836 0.75 2.75415ZM1.5 14.0042C1.08579 14.0042 0.75 14.3399 0.75 14.7542C0.75 15.1684 1.08579 15.5042 1.5 15.5042H14.2499C14.6641 15.5042 14.9999 15.1684 14.9999 14.7542C14.9999 14.3399 14.6641 14.0042 14.2499 14.0042H1.5Z" fill="#363636"/>
</svg>
