<svg width="17" height="16" viewBox="0 0 17 16" fill="none" xmlns="http://www.w3.org/2000/svg">
<g opacity="0.9">
<path fill-rule="evenodd" clip-rule="evenodd" d="M3.35999 4C3.35999 3.72386 3.58384 3.5 3.85999 3.5H12.3599C12.6361 3.5 12.8599 3.72386 12.8599 4C12.8599 4.27614 12.6361 4.5 12.3599 4.5H3.85999C3.58384 4.5 3.35999 4.27614 3.35999 4ZM12.36 6.5C12.6361 6.5 12.86 6.72386 12.86 7V11.793L14.5064 10.1468C14.7017 9.95155 15.0182 9.95157 15.2135 10.1468C15.4087 10.3421 15.4087 10.6587 15.2135 10.854L12.7136 13.3535L12.7135 13.3536C12.623 13.444 12.498 13.5 12.36 13.5L12.357 13.5C12.2903 13.4996 12.2267 13.4861 12.1686 13.4621C12.1096 13.4377 12.0544 13.4015 12.0064 13.3536L9.50643 10.8536C9.31117 10.6583 9.31117 10.3417 9.50643 10.1464C9.70169 9.95118 10.0183 9.95118 10.2135 10.1464L11.86 11.7929V7C11.86 6.72386 12.0838 6.5 12.36 6.5ZM3.85999 7.5C3.58384 7.5 3.35999 7.72386 3.35999 8C3.35999 8.27614 3.58384 8.5 3.85999 8.5H8.35992C8.63607 8.5 8.85992 8.27614 8.85992 8C8.85992 7.72386 8.63607 7.5 8.35992 7.5H3.85999ZM3.85999 11.5C3.58384 11.5 3.35999 11.7239 3.35999 12C3.35999 12.2761 3.58384 12.5 3.85999 12.5H7.35999C7.63613 12.5 7.85999 12.2761 7.85999 12C7.85999 11.7239 7.63613 11.5 7.35999 11.5H3.85999Z" fill="#A7A7A7"/>
</g>
</svg>
