<svg width="24" height="25" fill="none" xmlns="http://www.w3.org/2000/svg"><path d="M22.499 8.47c.15-.516 0-.896-.727-.896h-2.406c-.613 0-.894.326-1.045.69 0 0-1.226 3.015-2.957 4.97-.56.565-.817.747-1.123.747-.152 0-.384-.182-.384-.697V8.47c0-.62-.172-.896-.678-.896H9.397c-.384 0-.613.29-.613.557 0 .586.866.722.956 2.372v3.58c0 .784-.139.929-.445.929-.817 0-2.802-3.028-3.978-6.493-.237-.672-.47-.945-1.086-.945H1.825c-.686 0-.825.326-.825.69 0 .643.817 3.84 3.802 8.064 1.99 2.883 4.79 4.447 7.34 4.447 1.53 0 1.719-.347 1.719-.945 0-2.756-.14-3.015.629-3.015.355 0 .968.181 2.397 1.571 1.634 1.65 1.903 2.389 2.818 2.389h2.406c.686 0 1.033-.347.833-1.032-.458-1.44-3.55-4.401-3.688-4.6-.355-.461-.253-.667 0-1.08.004-.004 2.94-4.179 3.243-5.593z" fill="#363636"/></svg>